<svg width="66" height="73" viewBox="0 0 66 73" fill="none" xmlns="http://www.w3.org/2000/svg">
<path d="M26.0276 34.0384C25.7991 33.6196 25.485 33.3007 25.0852 33.0818C24.6854 32.8629 24.2189 32.7534 23.6859 32.7534C23.0957 32.7534 22.5722 32.8867 22.1152 33.1532C21.6583 33.4197 21.3014 33.8005 21.0444 34.2955C20.7874 34.7904 20.6588 35.3616 20.6588 36.0089C20.6588 36.6752 20.7874 37.2559 21.0444 37.7509C21.3109 38.2458 21.6774 38.6266 22.1438 38.8931C22.6102 39.1597 23.1528 39.2929 23.7716 39.2929C24.5331 39.2929 25.1566 39.093 25.642 38.6932C26.1275 38.2839 26.4464 37.7175 26.5987 36.9941H23.1719V35.4663H28.5691V37.2083C28.4359 37.9032 28.1503 38.5457 27.7124 39.1359C27.2745 39.726 26.7082 40.202 26.0133 40.5637C25.3279 40.9159 24.5569 41.092 23.7002 41.092C22.7387 41.092 21.8678 40.8778 21.0872 40.4495C20.3162 40.0116 19.7069 39.4072 19.2596 38.6361C18.8217 37.8651 18.6027 36.9893 18.6027 36.0089C18.6027 35.0284 18.8217 34.1527 19.2596 33.3816C19.7069 32.6011 20.3162 31.9966 21.0872 31.5683C21.8678 31.1304 22.734 30.9115 23.6859 30.9115C24.8091 30.9115 25.7848 31.1875 26.613 31.7396C27.4411 32.2822 28.0123 33.0485 28.3264 34.0384H26.0276ZM32.047 32.6534V35.1522H35.4025V36.7371H32.047V39.3786H35.8308V41.0063H30.0481V31.0257H35.8308V32.6534H32.047ZM41.1314 31.04C42.1785 31.04 43.0971 31.2446 43.8871 31.6539C44.6867 32.0633 45.3007 32.6487 45.7291 33.4102C46.1669 34.1622 46.3859 35.0379 46.3859 36.0374C46.3859 37.0369 46.1669 37.9127 45.7291 38.6647C45.3007 39.4072 44.6867 39.9831 43.8871 40.3924C43.0971 40.8017 42.1785 41.0063 41.1314 41.0063H37.6475V31.04H41.1314ZM41.06 39.3072C42.1071 39.3072 42.9162 39.0216 43.4873 38.4505C44.0585 37.8794 44.3441 37.075 44.3441 36.0374C44.3441 34.9999 44.0585 34.1908 43.4873 33.6101C42.9162 33.0199 42.1071 32.7248 41.06 32.7248H39.6464V39.3072H41.06Z" fill="white"/>
<path d="M9.29747 29.7595C9.29747 27.2952 11.2952 25.2975 13.7595 25.2975H55.7025V46.7152H13.7595C11.2952 46.7152 9.29747 44.7175 9.29747 42.2532V29.7595Z" stroke="white" stroke-width="0.594937"/>
<path d="M16.4368 27.3798H15.5444C13.5729 27.3798 11.9747 28.9779 11.9747 30.9494V30.9494M11.9747 32.7342V34.8165" stroke="white" stroke-width="0.594937" stroke-linecap="round"/>
</svg>
