<svg width="66" height="73" viewBox="0 0 66 73" fill="none" xmlns="http://www.w3.org/2000/svg">
<rect x="17.43" y="20.43" width="31.14" height="31.14" rx="3.57" stroke="white" stroke-width="0.86"/>
<path d="M21 20V13M29.5 20V16.5V13M37.5 20V13M45 20V16.5V13" stroke="white" stroke-width="0.86" stroke-linecap="round"/>
<path d="M56 50H49M56 41.5H52.5H49M56 33.5H49M56 26H52.5H49" stroke="white" stroke-width="0.86" stroke-linecap="round"/>
<path d="M17 50H10M17 41.5H13.5H10M17 33.5H10M17 26H13.5H10" stroke="white" stroke-width="0.86" stroke-linecap="round"/>
<path d="M45 52V59M36.5 52V55.5V59M28.5 52V59M21 52V55.5V59" stroke="white" stroke-width="0.86" stroke-linecap="round"/>
<rect x="25.43" y="29.43" width="15.14" height="15.14" rx="2.57" stroke="white" stroke-width="0.86"/>
</svg>
