<svg width="67" height="73" viewBox="0 0 67 73" fill="none" xmlns="http://www.w3.org/2000/svg">
<rect x="0.691406" width="66" height="73" rx="14" fill="#7295D6"/>
<circle cx="34.075" cy="36.7698" r="15.9562" stroke="white" stroke-width="1.2274"/>
<path d="M40.2119 36.8466C40.2119 41.2977 39.4569 45.2986 38.2597 48.1639C37.6605 49.5978 36.9627 50.7183 36.2192 51.4709C35.4778 52.2214 34.7277 52.5726 33.9982 52.5726C33.2687 52.5726 32.5186 52.2214 31.7773 51.4709C31.0338 50.7183 30.336 49.5978 29.7368 48.1639C28.5396 45.2986 27.7845 41.2977 27.7845 36.8466C27.7845 32.3954 28.5396 28.3945 29.7368 25.5292C30.336 24.0953 31.0338 22.9748 31.7773 22.2222C32.5186 21.4718 33.2687 21.1205 33.9982 21.1205C34.7277 21.1205 35.4778 21.4718 36.2192 22.2222C36.9627 22.9748 37.6605 24.0953 38.2597 25.5292C39.4569 28.3945 40.2119 32.3954 40.2119 36.8466Z" stroke="white" stroke-width="1.2274"/>
<path d="M18.3489 36.2329C18.01 36.2329 17.7352 36.5076 17.7352 36.8466C17.7352 37.1855 18.01 37.4603 18.3489 37.4603V36.2329ZM49.8777 37.4603H50.4914V36.2329H49.8777V37.4603ZM21.2831 27.4639C20.9734 27.3262 20.6107 27.4657 20.4731 27.7754C20.3354 28.0851 20.4749 28.4478 20.7846 28.5855L21.2831 27.4639ZM47.375 28.5811C47.6823 28.4381 47.8155 28.073 47.6725 27.7657C47.5295 27.4584 47.1644 27.3253 46.8571 27.4683L47.375 28.5811ZM20.7294 45.2891C20.4351 45.4572 20.3329 45.8321 20.501 46.1264C20.6692 46.4207 21.0441 46.5229 21.3383 46.3548L20.7294 45.2891ZM46.796 46.6524C47.0853 46.8292 47.463 46.738 47.6397 46.4488C47.8165 46.1596 47.7253 45.7818 47.4361 45.6051L46.796 46.6524ZM18.3489 37.4603H49.8777V36.2329H18.3489V37.4603ZM20.7846 28.5855C29.2262 32.3373 39.461 32.2638 47.375 28.5811L46.8571 27.4683C39.2753 30.9964 29.4114 31.0764 21.2831 27.4639L20.7846 28.5855ZM21.3383 46.3548C24.4355 44.585 29.1127 43.6166 33.9011 43.626C38.689 43.6355 43.4742 44.6224 46.796 46.6524L47.4361 45.6051C43.8538 43.4159 38.8198 42.4083 33.9036 42.3986C28.9879 42.3889 24.0761 43.3767 20.7294 45.2891L21.3383 46.3548Z" fill="white"/>
<path d="M27.4777 13.6794H20.727C14.9651 13.6794 10.2941 18.3504 10.2941 24.1123V30.4027" stroke="white" stroke-width="1.2274" stroke-linecap="round"/>
<path d="M10.2941 43.0603L10.2941 49.811C10.2941 55.5729 14.9651 60.2439 20.727 60.2439H27.0174" stroke="white" stroke-width="1.2274" stroke-linecap="round"/>
<path d="M57.549 30.9397V24.189C57.549 18.4271 52.878 13.7561 47.1161 13.7561L40.8257 13.7561" stroke="white" stroke-width="1.2274" stroke-linecap="round"/>
<path d="M40.3654 60.2439H47.1161C52.878 60.2439 57.549 55.5729 57.549 49.811V43.5206" stroke="white" stroke-width="1.2274" stroke-linecap="round"/>
<path d="M61.538 36.7698C61.538 39.0768 59.7332 40.9123 57.549 40.9123C55.3647 40.9123 53.5599 39.0768 53.5599 36.7698C53.5599 34.4629 55.3647 32.6274 57.549 32.6274C59.7332 32.6274 61.538 34.4629 61.538 36.7698Z" stroke="white" stroke-width="1.2274"/>
<path d="M38.064 13.7562C38.064 16.0631 36.2592 17.8986 34.075 17.8986C31.8907 17.8986 30.0859 16.0631 30.0859 13.7562C30.0859 11.4492 31.8907 9.6137 34.075 9.6137C36.2592 9.6137 38.064 11.4492 38.064 13.7562Z" stroke="white" stroke-width="1.2274"/>
<path d="M38.064 60.2438C38.064 62.5508 36.2592 64.3863 34.075 64.3863C31.8907 64.3863 30.0859 62.5508 30.0859 60.2438C30.0859 57.9369 31.8907 56.1014 34.075 56.1014C36.2592 56.1014 38.064 57.9369 38.064 60.2438Z" stroke="white" stroke-width="1.2274"/>
<path d="M14.2832 36.7698C14.2832 39.0768 12.4784 40.9123 10.2941 40.9123C8.10987 40.9123 6.3051 39.0768 6.3051 36.7698C6.3051 34.4629 8.10987 32.6274 10.2941 32.6274C12.4784 32.6274 14.2832 34.4629 14.2832 36.7698Z" stroke="white" stroke-width="1.2274"/>
</svg>
