<svg width="66" height="73" viewBox="0 0 66 73" fill="none" xmlns="http://www.w3.org/2000/svg">
<rect x="15.6" y="24.5999" width="34.8" height="34.8" rx="4.2" stroke="white" stroke-width="1.2"/>
<path d="M23.4 24.6V22.2C23.4 16.5667 27.9667 12 33.6 12V12C39.2333 12 43.8 16.5667 43.8 22.2V24.6" stroke="white" stroke-width="1.2"/>
<path d="M42 27.6C47.4 27 48 28.1999 48 33" stroke="white" stroke-width="0.96" stroke-linecap="round"/>
<path d="M48 35.4V37.2" stroke="white" stroke-width="0.96" stroke-linecap="round"/>
<path d="M29.4 37.5V40.35C29.4 40.9299 29.8701 41.4 30.45 41.4C31.0299 41.4 31.5 41.8701 31.5 42.45V48.5489C31.5 49.2399 32.0601 49.8 32.7511 49.8H34.449C35.1399 49.8 35.7 49.2399 35.7 48.5489V42.45C35.7 41.8701 36.1701 41.4 36.75 41.4C37.3299 41.4 37.8 40.9299 37.8 40.35V37.5C37.8 35.3461 36.0539 33.6 33.9 33.6H33.3C31.1461 33.6 29.4 35.3461 29.4 37.5Z" stroke="white" stroke-width="1.2" stroke-linecap="round"/>
</svg>
