<svg width="66" height="73" viewBox="0 0 66 73" fill="none" xmlns="http://www.w3.org/2000/svg">
<rect width="66" height="73" rx="14" fill="#7295D6"/>
<path d="M13.432 29.6261C13.4095 27.0806 13.8999 24.5555 14.8751 22.1965C15.8504 19.8376 17.2915 17.691 19.116 15.8813C20.9405 14.0716 23.1122 12.6345 25.5061 11.6538C27.9001 10.6731 30.4683 10.1684 33.0624 10.1692C35.6565 10.1701 38.2244 10.6764 40.6177 11.6587C43.0109 12.641 45.1816 14.0795 47.0049 15.8904C48.8282 17.7013 50.2678 19.8488 51.2415 22.2084C52.2152 24.5679 52.7039 27.0934 52.6796 29.6389" stroke="white" stroke-width="1.78914"/>
<path d="M13.4872 30.4089H16.946C17.3516 30.4089 17.6805 30.7377 17.6805 31.1434V46.3874C17.6805 46.7645 17.3748 47.0702 16.9977 47.0702H13.4872C8.88633 47.0702 5.15656 43.3404 5.15656 38.7395C5.15656 34.1386 8.88633 30.4089 13.4872 30.4089Z" stroke="white" stroke-width="1.78914"/>
<path d="M52.5128 30.4089H49.0541C48.6484 30.4089 48.3195 30.7377 48.3195 31.1434V46.3874C48.3195 46.7645 48.6252 47.0702 49.0023 47.0702H52.5128C57.1137 47.0702 60.8435 43.3404 60.8435 38.7395C60.8435 34.1386 57.1137 30.4089 52.5128 30.4089Z" stroke="white" stroke-width="1.78914"/>
<path d="M13.7109 47.9088C18.5192 57.6372 23.2716 60.321 29.7013 60.321" stroke="white" stroke-width="1.78914"/>
<circle cx="33.6709" cy="59.2587" r="3.35463" fill="white" stroke="white" stroke-width="1.78914"/>
<path d="M22.2093 20.7363C23.9984 15.5925 33.7828 14.2507 36.4665 16.3194M39.7093 16.8785C40.3861 17.4025 40.7656 17.6963 41.4425 18.2203" stroke="white" stroke-width="1.78914" stroke-linecap="round"/>
</svg>
