<svg width="66" height="73" viewBox="0 0 66 73" fill="none" xmlns="http://www.w3.org/2000/svg">
<path d="M21.8868 43.0358V54.5657M29.6214 43.0358V54.5657" stroke="white" stroke-width="0.690071" stroke-linecap="round"/>
<circle cx="29.6215" cy="57.3835" r="2.78904" stroke="white" stroke-width="0.690071"/>
<circle cx="21.9732" cy="57.3835" r="2.78904" stroke="white" stroke-width="0.690071"/>
<path d="M37.1548 43.0358V54.5657M44.8893 43.0358V54.5657" stroke="white" stroke-width="0.690071" stroke-linecap="round"/>
<circle cx="44.8893" cy="57.3835" r="2.78904" stroke="white" stroke-width="0.690071"/>
<circle cx="37.2411" cy="57.3835" r="2.78904" stroke="white" stroke-width="0.690071"/>
<path d="M44.1722 29.9818V18.4519M36.4377 29.9818V18.4519" stroke="white" stroke-width="0.690071" stroke-linecap="round"/>
<circle cx="36.4376" cy="15.6341" r="2.78904" transform="rotate(180 36.4376 15.6341)" stroke="white" stroke-width="0.690071"/>
<circle cx="44.0859" cy="15.6341" r="2.78904" transform="rotate(180 44.0859 15.6341)" stroke="white" stroke-width="0.690071"/>
<path d="M28.9042 29.9818V18.4519M21.1696 29.9818V18.4519" stroke="white" stroke-width="0.690071" stroke-linecap="round"/>
<circle cx="21.1696" cy="15.6341" r="2.78904" transform="rotate(180 21.1696 15.6341)" stroke="white" stroke-width="0.690071"/>
<circle cx="28.8178" cy="15.6341" r="2.78904" transform="rotate(180 28.8178 15.6341)" stroke="white" stroke-width="0.690071"/>
<path d="M10 43.0357V30.1786H55V43.0357H10Z" stroke="white" stroke-width="0.803571"/>
<rect x="21.4509" y="35.2009" width="3.61607" height="3.61607" stroke="white" stroke-width="0.401786"/>
<circle cx="29.6875" cy="37.0089" r="1.80804" stroke="white" stroke-width="0.401786"/>
<circle cx="36.1161" cy="37.0089" r="1.80804" stroke="white" stroke-width="0.401786"/>
<rect x="40.7367" y="35.2009" width="3.61607" height="3.61607" stroke="white" stroke-width="0.401786"/>
</svg>
