<svg width="66" height="73" viewBox="0 0 66 73" fill="none" xmlns="http://www.w3.org/2000/svg">
<path d="M13.4321 29.6261C13.4095 27.0806 13.8999 24.5555 14.8752 22.1965C15.8504 19.8376 17.2916 17.691 19.116 15.8813C20.9405 14.0716 23.1123 12.6345 25.5062 11.6538C27.9001 10.6731 30.4683 10.1684 33.0624 10.1692C35.6565 10.1701 38.2244 10.6764 40.6177 11.6587C43.0109 12.641 45.1817 14.0795 47.0049 15.8904C48.8282 17.7013 50.2679 19.8488 51.2416 22.2084C52.2153 24.5679 52.7039 27.0934 52.6797 29.6389" stroke="white" stroke-width="1.78914"/>
<path d="M13.4872 30.4089H16.9459C17.3516 30.4089 17.6805 30.7377 17.6805 31.1434V46.3874C17.6805 46.7645 17.3748 47.0702 16.9977 47.0702H13.4872C8.8863 47.0702 5.15653 43.3404 5.15653 38.7395C5.15653 34.1386 8.8863 30.4089 13.4872 30.4089Z" stroke="white" stroke-width="1.78914"/>
<path d="M52.5128 30.4089H49.0541C48.6484 30.4089 48.3195 30.7377 48.3195 31.1434V46.3874C48.3195 46.7645 48.6252 47.0702 49.0023 47.0702H52.5128C57.1137 47.0702 60.8435 43.3404 60.8435 38.7395C60.8435 34.1386 57.1137 30.4089 52.5128 30.4089Z" stroke="white" stroke-width="1.78914"/>
<path d="M13.7108 47.9088C18.5191 57.6372 23.2715 60.321 29.7012 60.321" stroke="white" stroke-width="1.78914"/>
<circle cx="33.671" cy="59.2587" r="3.35463" fill="white" stroke="white" stroke-width="1.78914"/>
<path d="M22.2092 20.7363C23.9984 15.5925 33.7827 14.2507 36.4664 16.3194M39.7092 16.8785C40.3861 17.4025 40.7656 17.6963 41.4425 18.2203" stroke="white" stroke-width="1.78914" stroke-linecap="round"/>
</svg>
