<svg width="66" height="73" viewBox="0 0 66 73" fill="none" xmlns="http://www.w3.org/2000/svg">
<rect width="66" height="73" rx="14" fill="#7295D6"/>
<path d="M17.0588 53.9412H11.4118C10.6321 53.9412 10 53.3091 10 52.5294V14.4118C10 13.6321 10.6321 13 11.4118 13H53.7647C54.5444 13 55.1765 13.6321 55.1765 14.4118V52.5294C55.1765 53.3091 54.5444 53.9412 53.7647 53.9412H48.1176" stroke="white"/>
<path d="M10.7059 21.4706H54.4706" stroke="white"/>
<path d="M30.4706 45.4705H18.4706C17.6909 45.4705 17.0588 46.1026 17.0588 46.8823V59.5882C17.0588 60.3679 17.6909 60.9999 18.4706 60.9999H46C46.7797 60.9999 47.4118 60.3679 47.4118 59.5882V46.8823C47.4118 46.1026 46.7797 45.4705 46 45.4705H33.2941M30.4706 45.4705V39.1176H29.0728C28.7498 39.1176 28.5457 38.7707 28.7025 38.4884L31.759 32.9868C31.8127 32.89 31.952 32.89 32.0058 32.9868L35.0622 38.4884C35.219 38.7707 35.0149 39.1176 34.692 39.1176H33.2941V45.4705M30.4706 45.4705H33.2941" stroke="white"/>
<path d="M29.9453 57.4857L29.9455 57.4853L29.9327 57.48L29.4086 57.2631L29.3352 56.4728C29.2972 56.0643 28.9729 55.7411 28.5642 55.7047L27.8507 55.641L27.5702 55.0052L27.3331 54.4032L27.7547 53.9556C28.0274 53.6661 28.0629 53.2262 27.8403 52.8967L27.3213 52.1285L27.5734 51.4108L27.81 50.8102L28.4646 50.7757C28.847 50.7556 29.1687 50.4824 29.2505 50.1084L29.4389 49.2474L29.9592 48.9862L30.726 48.6997L31.3152 49.1566C31.6371 49.4063 32.0908 49.3925 32.397 49.1238L33.0196 48.5774L33.8417 48.9789L34.2958 49.2362L34.4123 50.013C34.4677 50.3823 34.7576 50.6722 35.127 50.7276L35.8935 50.8426L36.2408 51.5758L36.445 52.1325L35.9431 52.9065C35.7315 53.233 35.7684 53.6615 36.0329 53.9469L36.4306 54.3762L36.1531 55.0237L35.8931 55.5993L35.1787 55.6799C34.7034 55.7335 34.3443 56.1354 34.3443 56.6136L34.3443 57.1905L33.8026 57.4613L32.9862 57.8112L32.3343 57.3349C32.0108 57.0985 31.5661 57.12 31.267 57.3866L30.7277 57.8673L29.9453 57.4857Z" stroke="white" stroke-width="0.447472"/>
<circle cx="31.6491" cy="53.3618" r="1.47324" stroke="white" stroke-width="0.453304"/>
<path d="M42.4706 18.8353V16.1058C42.4706 15.9499 42.597 15.8235 42.7529 15.8235H45.0118C45.1677 15.8235 45.2941 15.9499 45.2941 16.1058V18.8353C45.2941 18.9912 45.1677 19.1176 45.0118 19.1176H42.7529C42.597 19.1176 42.4706 18.9912 42.4706 18.8353Z" stroke="white" stroke-width="0.941177"/>
<path d="M49.5294 18.8353V16.1058C49.5294 15.9499 49.6558 15.8235 49.8118 15.8235H52.0706C52.2265 15.8235 52.3529 15.9499 52.3529 16.1058V18.8353C52.3529 18.9912 52.2265 19.1176 52.0706 19.1176H49.8118C49.6558 19.1176 49.5294 18.9912 49.5294 18.8353Z" stroke="white" stroke-width="0.941177"/>
<path d="M52.353 29.9411V27.1176C52.353 25.5582 51.0889 24.2941 49.5295 24.2941V24.2941H46.706M52.353 32.4117V34.1764" stroke="white" stroke-width="0.941177" stroke-linecap="round"/>
</svg>
