<svg width="66" height="73" viewBox="0 0 66 73" fill="none" xmlns="http://www.w3.org/2000/svg">
<path d="M50.1687 41.9555C56.0679 42.3324 65.368 33.0915 52.6018 25.4961C56.1084 10.0027 28.843 3.66938 23.1895 18.0893C16.3815 17.8472 14.564 19.8179 13.3138 23.5996C1.57751 28.6448 5.54926 39.9518 14.1368 41.9555L17.9296 41.9556V55.1589H14.9955M21.1141 42.707H27.7695V57.0553M30.7393 42.707H37.3947V57.0553M40.8297 42.707H46.8052V55.1589H49.4173" stroke="white" stroke-width="0.858755" stroke-linecap="round"/>
<circle cx="53.3533" cy="54.9085" r="3.4708" stroke="white" stroke-width="0.858755"/>
<circle cx="37.3947" cy="60.5619" r="3.4708" stroke="white" stroke-width="0.858755"/>
<circle cx="27.8769" cy="60.5619" r="3.4708" stroke="white" stroke-width="0.858755"/>
<circle cx="11.3459" cy="54.9085" r="3.4708" stroke="white" stroke-width="0.858755"/>
<path d="M36.214 13.9744C41.2596 13.9251 43.3108 15.1583 46.0539 18.8407M46.698 21.0949C47.7408 23.0709 48.3004 24.1762 47.4851 25.9612" stroke="white" stroke-width="0.858755" stroke-linecap="round"/>
</svg>
