<svg width="66" height="73" viewBox="0 0 66 73" fill="none" xmlns="http://www.w3.org/2000/svg">
<path d="M9.28676 19.2941C9.28676 18.1855 10.1855 17.2868 11.2941 17.2868H34.2353C35.3439 17.2868 36.2426 18.1855 36.2426 19.2941V54.8529C36.2426 55.3281 35.8575 55.7132 35.3824 55.7132H11.2941C10.1855 55.7132 9.28676 54.8145 9.28676 53.7059V19.2941Z" stroke="white" stroke-width="0.573529"/>
<path d="M37.963 29.6176C37.963 29.1425 38.3482 28.7573 38.8233 28.7573H56.0292C56.5043 28.7573 56.8895 29.1425 56.8895 29.6176V54.8529C56.8895 55.3281 56.5043 55.7132 56.0292 55.7132H38.8233C38.3482 55.7132 37.963 55.3281 37.963 54.8529V29.6176Z" stroke="white" stroke-width="0.573529"/>
<rect x="12.6132" y="22.9073" width="4.24412" height="4.24412" rx="0.172059" stroke="white" stroke-width="0.344118"/>
<rect x="20.6426" y="22.9073" width="4.24412" height="4.24412" rx="0.172059" stroke="white" stroke-width="0.344118"/>
<rect x="28.6721" y="22.9073" width="4.24412" height="4.24412" rx="0.172059" stroke="white" stroke-width="0.344118"/>
<rect x="12.6132" y="30.9367" width="4.24412" height="4.24412" rx="0.172059" stroke="white" stroke-width="0.344118"/>
<rect x="20.6426" y="30.9367" width="4.24412" height="4.24412" rx="0.172059" stroke="white" stroke-width="0.344118"/>
<rect x="28.6721" y="30.9367" width="4.24412" height="4.24412" rx="0.172059" stroke="white" stroke-width="0.344118"/>
<rect x="12.6132" y="38.9661" width="4.24412" height="4.24412" rx="0.172059" stroke="white" stroke-width="0.344118"/>
<rect x="20.6426" y="38.9661" width="4.24412" height="4.24412" rx="0.172059" stroke="white" stroke-width="0.344118"/>
<rect x="28.6721" y="38.9661" width="4.24412" height="4.24412" rx="0.172059" stroke="white" stroke-width="0.344118"/>
<rect x="12.6132" y="46.9955" width="4.24412" height="4.24412" rx="0.172059" stroke="white" stroke-width="0.344118"/>
<rect x="20.6426" y="46.9955" width="4.24412" height="4.24412" rx="0.172059" stroke="white" stroke-width="0.344118"/>
<rect x="28.6721" y="46.9955" width="4.24412" height="4.24412" rx="0.172059" stroke="white" stroke-width="0.344118"/>
<rect x="41.2897" y="32.0838" width="4.24412" height="4.24412" rx="0.172059" stroke="white" stroke-width="0.344118"/>
<rect x="49.319" y="32.0838" width="4.24412" height="4.24412" rx="0.172059" stroke="white" stroke-width="0.344118"/>
<rect x="41.2897" y="37.819" width="4.24412" height="4.24412" rx="0.172059" stroke="white" stroke-width="0.344118"/>
<rect x="49.319" y="37.819" width="4.24412" height="4.24412" rx="0.172059" stroke="white" stroke-width="0.344118"/>
<rect x="41.2897" y="43.5544" width="4.24412" height="4.24412" rx="0.172059" stroke="white" stroke-width="0.344118"/>
<rect x="49.319" y="43.5544" width="4.24412" height="4.24412" rx="0.172059" stroke="white" stroke-width="0.344118"/>
<rect x="41.2897" y="49.2896" width="4.24412" height="4.24412" rx="0.172059" stroke="white" stroke-width="0.344118"/>
<rect x="49.319" y="49.2896" width="4.24412" height="4.24412" rx="0.172059" stroke="white" stroke-width="0.344118"/>
</svg>
