<svg width="66" height="73" viewBox="0 0 66 73" fill="none" xmlns="http://www.w3.org/2000/svg">
<circle cx="33.3836" cy="36.7698" r="15.9562" stroke="white" stroke-width="1.2274"/>
<path d="M39.5206 36.8466C39.5206 41.2977 38.7656 45.2986 37.5683 48.1639C36.9692 49.5978 36.2713 50.7183 35.5278 51.4709C34.7865 52.2214 34.0364 52.5726 33.3069 52.5726C32.5774 52.5726 31.8273 52.2214 31.0859 51.4709C30.3424 50.7183 29.6446 49.5978 29.0454 48.1639C27.8482 45.2986 27.0932 41.2977 27.0932 36.8466C27.0932 32.3954 27.8482 28.3945 29.0454 25.5292C29.6446 24.0953 30.3424 22.9748 31.0859 22.2222C31.8273 21.4718 32.5774 21.1205 33.3069 21.1205C34.0364 21.1205 34.7865 21.4718 35.5278 22.2222C36.2713 22.9748 36.9692 24.0953 37.5683 25.5292C38.7656 28.3945 39.5206 32.3954 39.5206 36.8466Z" stroke="white" stroke-width="1.2274"/>
<path d="M17.6576 36.2329C17.3187 36.2329 17.0439 36.5076 17.0439 36.8466C17.0439 37.1855 17.3187 37.4603 17.6576 37.4603V36.2329ZM49.1864 37.4603H49.8001V36.2329H49.1864V37.4603ZM20.5918 27.4639C20.282 27.3262 19.9194 27.4657 19.7817 27.7754C19.6441 28.0851 19.7836 28.4478 20.0933 28.5855L20.5918 27.4639ZM46.6836 28.5811C46.9909 28.4381 47.1241 28.073 46.9811 27.7657C46.8381 27.4584 46.4731 27.3253 46.1658 27.4683L46.6836 28.5811ZM20.038 45.2891C19.7438 45.4572 19.6415 45.8321 19.8097 46.1264C19.9778 46.4207 20.3527 46.5229 20.647 46.3548L20.038 45.2891ZM46.1047 46.6524C46.3939 46.8292 46.7716 46.738 46.9484 46.4488C47.1251 46.1596 47.0339 45.7818 46.7447 45.6051L46.1047 46.6524ZM17.6576 37.4603H49.1864V36.2329H17.6576V37.4603ZM20.0933 28.5855C28.5349 32.3373 38.7696 32.2638 46.6836 28.5811L46.1658 27.4683C38.5839 30.9964 28.72 31.0764 20.5918 27.4639L20.0933 28.5855ZM20.647 46.3548C23.7441 44.585 28.4213 43.6166 33.2098 43.626C37.9977 43.6355 42.7829 44.6224 46.1047 46.6524L46.7447 45.6051C43.1624 43.4159 38.1285 42.4083 33.2122 42.3986C28.2966 42.3889 23.3848 43.3767 20.038 45.2891L20.647 46.3548Z" fill="white"/>
<path d="M26.7863 13.6794H20.0357C14.2737 13.6794 9.60278 18.3504 9.60278 24.1123V30.4027" stroke="white" stroke-width="1.2274" stroke-linecap="round"/>
<path d="M9.60278 43.0603L9.60278 49.811C9.60278 55.5729 14.2737 60.2439 20.0357 60.2439H26.3261" stroke="white" stroke-width="1.2274" stroke-linecap="round"/>
<path d="M56.8575 30.9397V24.189C56.8575 18.4271 52.1866 13.7561 46.4247 13.7561L40.1343 13.7561" stroke="white" stroke-width="1.2274" stroke-linecap="round"/>
<path d="M39.674 60.2439H46.4247C52.1866 60.2439 56.8575 55.5729 56.8575 49.811V43.5206" stroke="white" stroke-width="1.2274" stroke-linecap="round"/>
<path d="M60.8465 36.7698C60.8465 39.0768 59.0418 40.9123 56.8575 40.9123C54.6732 40.9123 52.8685 39.0768 52.8685 36.7698C52.8685 34.4629 54.6732 32.6274 56.8575 32.6274C59.0418 32.6274 60.8465 34.4629 60.8465 36.7698Z" stroke="white" stroke-width="1.2274"/>
<path d="M37.3725 13.7562C37.3725 16.0631 35.5678 17.8986 33.3835 17.8986C31.1992 17.8986 29.3945 16.0631 29.3945 13.7562C29.3945 11.4492 31.1992 9.6137 33.3835 9.6137C35.5678 9.6137 37.3725 11.4492 37.3725 13.7562Z" stroke="white" stroke-width="1.2274"/>
<path d="M37.3725 60.2438C37.3725 62.5508 35.5678 64.3863 33.3835 64.3863C31.1992 64.3863 29.3945 62.5508 29.3945 60.2438C29.3945 57.9369 31.1992 56.1014 33.3835 56.1014C35.5678 56.1014 37.3725 57.9369 37.3725 60.2438Z" stroke="white" stroke-width="1.2274"/>
<path d="M13.5918 36.7698C13.5918 39.0768 11.787 40.9123 9.60274 40.9123C7.41847 40.9123 5.6137 39.0768 5.6137 36.7698C5.6137 34.4629 7.41847 32.6274 9.60274 32.6274C11.787 32.6274 13.5918 34.4629 13.5918 36.7698Z" stroke="white" stroke-width="1.2274"/>
</svg>
